<mxfile host="app.diagrams.net" modified="2024-05-09T16:26:31.945Z" agent="Mozilla/5.0 (Windows NT 10.0; Win64; x64) AppleWebKit/537.36 (KHTML, like Gecko) Chrome/121.0.0.0 Safari/537.36 OPR/107.0.0.0" etag="ftc0FE95X9KcFutHsM58" version="24.3.1" type="device">
  <diagram name="Page-1" id="Fh6B4Z12VoCaFojxbaUr">
    <mxGraphModel dx="961" dy="550" grid="1" gridSize="10" guides="1" tooltips="1" connect="1" arrows="1" fold="1" page="1" pageScale="1" pageWidth="850" pageHeight="1100" math="0" shadow="0">
      <root>
        <mxCell id="0" />
        <mxCell id="1" parent="0" />
        <mxCell id="691ENIwqhY8FKyqzqd8E-104" style="edgeStyle=orthogonalEdgeStyle;rounded=0;orthogonalLoop=1;jettySize=auto;html=1;startArrow=ERmany;startFill=0;endArrow=none;endFill=0;" parent="1" source="691ENIwqhY8FKyqzqd8E-30" target="691ENIwqhY8FKyqzqd8E-84" edge="1">
          <mxGeometry relative="1" as="geometry">
            <Array as="points">
              <mxPoint x="490" y="410" />
            </Array>
          </mxGeometry>
        </mxCell>
        <mxCell id="mxrBvfnKs-idO4pNGUOi-15" style="edgeStyle=orthogonalEdgeStyle;rounded=0;orthogonalLoop=1;jettySize=auto;html=1;endArrow=ERmany;endFill=0;startArrow=none;startFill=0;" edge="1" parent="1" source="691ENIwqhY8FKyqzqd8E-30" target="mxrBvfnKs-idO4pNGUOi-11">
          <mxGeometry relative="1" as="geometry" />
        </mxCell>
        <mxCell id="691ENIwqhY8FKyqzqd8E-30" value="" style="rounded=0;whiteSpace=wrap;html=1;strokeWidth=1;" parent="1" vertex="1">
          <mxGeometry x="270" y="340" width="180" height="100" as="geometry" />
        </mxCell>
        <mxCell id="691ENIwqhY8FKyqzqd8E-24" value="Staff" style="text;html=1;align=center;verticalAlign=middle;whiteSpace=wrap;rounded=0;rotation=0;" parent="1" vertex="1">
          <mxGeometry x="320" y="340" width="80" height="20" as="geometry" />
        </mxCell>
        <mxCell id="691ENIwqhY8FKyqzqd8E-36" value="&lt;font style=&quot;font-size: 9px;&quot;&gt;P&lt;span style=&quot;white-space: pre; font-size: 9px;&quot;&gt;&#x9;&lt;/span&gt;staff_id&lt;span style=&quot;white-space: pre; font-size: 9px;&quot;&gt;&#x9;&lt;/span&gt;&lt;span style=&quot;white-space: pre; font-size: 9px;&quot;&gt;&#x9;&lt;span style=&quot;white-space: pre; font-size: 9px;&quot;&gt;&#x9;&lt;/span&gt;&lt;/span&gt;INT&lt;/font&gt;&lt;div style=&quot;font-size: 9px;&quot;&gt;&lt;font style=&quot;font-size: 9px;&quot;&gt;&lt;span style=&quot;white-space: pre; font-size: 9px;&quot;&gt;&#x9;&lt;/span&gt;first_name&lt;span style=&quot;white-space: pre; font-size: 9px;&quot;&gt;&#x9;&lt;span style=&quot;white-space: pre; font-size: 9px;&quot;&gt;&#x9;&lt;/span&gt;&lt;/span&gt;VARCHAR(50)&lt;br style=&quot;font-size: 9px;&quot;&gt;&lt;/font&gt;&lt;/div&gt;&lt;div style=&quot;font-size: 9px;&quot;&gt;&lt;font style=&quot;font-size: 9px;&quot;&gt;&lt;span style=&quot;white-space: pre; font-size: 9px;&quot;&gt;&#x9;&lt;/span&gt;last_name&lt;span style=&quot;white-space: pre; font-size: 9px;&quot;&gt;&#x9;&lt;span style=&quot;white-space: pre; font-size: 9px;&quot;&gt;&#x9;&lt;/span&gt;&lt;/span&gt;VARCHAR(50)&lt;br style=&quot;font-size: 9px;&quot;&gt;&lt;/font&gt;&lt;/div&gt;&lt;div style=&quot;font-size: 9px;&quot;&gt;&lt;font style=&quot;font-size: 9px;&quot;&gt;&lt;span style=&quot;white-space: pre; font-size: 9px;&quot;&gt;&#x9;&lt;/span&gt;title&lt;span style=&quot;white-space: pre; font-size: 9px;&quot;&gt;&#x9;&lt;/span&gt;&lt;span style=&quot;white-space: pre; font-size: 9px;&quot;&gt;&#x9;&lt;/span&gt;&lt;span style=&quot;white-space: pre; font-size: 9px;&quot;&gt;&#x9;&lt;span style=&quot;white-space: pre; font-size: 9px;&quot;&gt;&#x9;&lt;/span&gt;&lt;/span&gt;VARCHAR(50)&lt;br style=&quot;font-size: 9px;&quot;&gt;&lt;/font&gt;&lt;/div&gt;&lt;div style=&quot;font-size: 9px;&quot;&gt;&lt;font style=&quot;font-size: 9px;&quot;&gt;&amp;nbsp; N&lt;span style=&quot;white-space: pre; font-size: 9px;&quot;&gt;&#x9;&lt;/span&gt;email&lt;span style=&quot;white-space: pre; font-size: 9px;&quot;&gt;&#x9;&lt;/span&gt;&lt;span style=&quot;white-space: pre; font-size: 9px;&quot;&gt;&#x9;&lt;span style=&quot;white-space: pre; font-size: 9px;&quot;&gt;&#x9;&lt;/span&gt;&lt;/span&gt;VARCHAR(100)&lt;br style=&quot;font-size: 9px;&quot;&gt;&lt;/font&gt;&lt;/div&gt;&lt;div style=&quot;font-size: 9px;&quot;&gt;&lt;font style=&quot;font-size: 9px;&quot;&gt;&lt;font style=&quot;font-size: 9px;&quot;&gt;&amp;nbsp; N&lt;span style=&quot;white-space: pre; font-size: 9px;&quot;&gt;&#x9;&lt;/span&gt;phone_number&lt;span style=&quot;white-space: pre; font-size: 9px;&quot;&gt;&#x9;&lt;/span&gt;VARCHAR(20)&lt;/font&gt;&lt;br style=&quot;font-size: 9px;&quot;&gt;&lt;/font&gt;&lt;/div&gt;&lt;div style=&quot;font-size: 9px;&quot;&gt;&lt;font style=&quot;font-size: 9px;&quot;&gt;&lt;font style=&quot;font-size: 9px;&quot;&gt;&lt;font style=&quot;font-size: 9px;&quot;&gt;F&lt;span style=&quot;white-space: pre; font-size: 9px;&quot;&gt;&#x9;&lt;/span&gt;address_id&lt;span style=&quot;white-space: pre; font-size: 9px;&quot;&gt;&#x9;&lt;/span&gt;&lt;span style=&quot;white-space: pre; font-size: 9px;&quot;&gt;&#x9;&lt;/span&gt;INT&lt;/font&gt;&lt;br style=&quot;font-size: 9px;&quot;&gt;&lt;/font&gt;&lt;/font&gt;&lt;/div&gt;" style="text;html=1;align=left;verticalAlign=top;whiteSpace=wrap;rounded=0;rotation=0;horizontal=1;fontSize=9;" parent="1" vertex="1">
          <mxGeometry x="270" y="355" width="180" height="85" as="geometry" />
        </mxCell>
        <mxCell id="691ENIwqhY8FKyqzqd8E-38" value="" style="endArrow=none;html=1;rounded=0;" parent="1" edge="1">
          <mxGeometry width="50" height="50" relative="1" as="geometry">
            <mxPoint x="270" y="360" as="sourcePoint" />
            <mxPoint x="450" y="360" as="targetPoint" />
          </mxGeometry>
        </mxCell>
        <mxCell id="691ENIwqhY8FKyqzqd8E-45" value="" style="rounded=0;whiteSpace=wrap;html=1;strokeWidth=1;" parent="1" vertex="1">
          <mxGeometry x="400" y="150" width="220" height="90" as="geometry" />
        </mxCell>
        <mxCell id="691ENIwqhY8FKyqzqd8E-46" value="Event" style="text;html=1;align=center;verticalAlign=middle;whiteSpace=wrap;rounded=0;rotation=0;" parent="1" vertex="1">
          <mxGeometry x="470" y="150" width="80" height="20" as="geometry" />
        </mxCell>
        <mxCell id="691ENIwqhY8FKyqzqd8E-47" value="&lt;div style=&quot;font-size: 9px;&quot;&gt;&lt;font style=&quot;font-size: 9px;&quot;&gt;&lt;font style=&quot;font-size: 9px;&quot;&gt;P&lt;span style=&quot;white-space: pre;&quot;&gt;&#x9;&lt;/span&gt;event_id&lt;span style=&quot;white-space: pre;&quot;&gt;&#x9;&lt;/span&gt;&lt;span style=&quot;white-space: pre;&quot;&gt;&#x9;&lt;span style=&quot;white-space: pre;&quot;&gt;&#x9;&lt;/span&gt;&lt;/span&gt;INT&lt;/font&gt;&lt;/font&gt;&lt;/div&gt;&lt;div style=&quot;font-size: 9px;&quot;&gt;&lt;font style=&quot;font-size: 9px;&quot;&gt;&lt;font style=&quot;font-size: 9px;&quot;&gt;F&lt;span style=&quot;white-space: pre;&quot;&gt;&#x9;&lt;/span&gt;patient_id&lt;span style=&quot;white-space: pre;&quot;&gt;&#x9;&lt;span style=&quot;white-space: pre;&quot;&gt;&#x9;&lt;/span&gt;&lt;/span&gt;INT&lt;/font&gt;&lt;/font&gt;&lt;/div&gt;&lt;div style=&quot;font-size: 9px;&quot;&gt;&lt;font style=&quot;font-size: 9px;&quot;&gt;&lt;font style=&quot;font-size: 9px;&quot;&gt;&lt;span style=&quot;white-space: pre;&quot;&gt;&#x9;&lt;/span&gt;event_type&lt;span style=&quot;white-space: pre;&quot;&gt;&#x9;&lt;/span&gt;&lt;span style=&quot;white-space: pre;&quot;&gt;&#x9;&lt;/span&gt;ENUM(&#39;Visit&#39;,&#39;Checkup&#39;,&lt;/font&gt;&lt;/font&gt;&lt;/div&gt;&lt;div style=&quot;font-size: 9px;&quot;&gt;&lt;span style=&quot;background-color: initial;&quot;&gt;&lt;span style=&quot;white-space: pre;&quot;&gt;&#x9;&lt;/span&gt;&lt;span style=&quot;white-space: pre;&quot;&gt;&#x9;&lt;/span&gt;&#39;Surgery&#39;, &#39;Appointment&#39;, &#39;Hospitalization&#39;)&lt;/span&gt;&lt;/div&gt;&lt;div style=&quot;font-size: 9px;&quot;&gt;&lt;font style=&quot;font-size: 9px;&quot;&gt;&lt;font style=&quot;font-size: 9px;&quot;&gt;&lt;span style=&quot;white-space: pre;&quot;&gt;&#x9;&lt;/span&gt;event_date&lt;span style=&quot;white-space: pre;&quot;&gt;&#x9;&lt;/span&gt;&lt;span style=&quot;white-space: pre;&quot;&gt;&#x9;&lt;/span&gt;DATETIME&lt;br&gt;&lt;/font&gt;&lt;/font&gt;&lt;/div&gt;&lt;div style=&quot;font-size: 9px;&quot;&gt;&lt;font style=&quot;font-size: 9px;&quot;&gt;&lt;font style=&quot;font-size: 9px;&quot;&gt;&amp;nbsp; N&lt;span style=&quot;white-space: pre;&quot;&gt;&#x9;&lt;/span&gt;end_date&lt;span style=&quot;white-space: pre;&quot;&gt;&#x9;&lt;/span&gt;&lt;span style=&quot;white-space: pre;&quot;&gt;&#x9;&lt;/span&gt;&lt;span style=&quot;white-space: pre;&quot;&gt;&#x9;&lt;/span&gt;DATETIME&lt;br&gt;&lt;/font&gt;&lt;/font&gt;&lt;/div&gt;&lt;div style=&quot;font-size: 9px;&quot;&gt;&lt;br&gt;&lt;/div&gt;" style="text;html=1;align=left;verticalAlign=top;whiteSpace=wrap;rounded=0;rotation=0;horizontal=1;fontSize=9;" parent="1" vertex="1">
          <mxGeometry x="400" y="165" width="220" height="75" as="geometry" />
        </mxCell>
        <mxCell id="691ENIwqhY8FKyqzqd8E-105" style="edgeStyle=orthogonalEdgeStyle;rounded=0;orthogonalLoop=1;jettySize=auto;html=1;endArrow=none;endFill=0;startArrow=ERmany;startFill=0;" parent="1" source="691ENIwqhY8FKyqzqd8E-51" target="691ENIwqhY8FKyqzqd8E-84" edge="1">
          <mxGeometry relative="1" as="geometry">
            <Array as="points">
              <mxPoint x="520" y="410" />
            </Array>
          </mxGeometry>
        </mxCell>
        <mxCell id="691ENIwqhY8FKyqzqd8E-108" style="edgeStyle=orthogonalEdgeStyle;rounded=0;orthogonalLoop=1;jettySize=auto;html=1;endArrow=ERmany;endFill=0;" parent="1" source="691ENIwqhY8FKyqzqd8E-51" target="691ENIwqhY8FKyqzqd8E-45" edge="1">
          <mxGeometry relative="1" as="geometry">
            <Array as="points">
              <mxPoint x="660" y="190" />
            </Array>
          </mxGeometry>
        </mxCell>
        <mxCell id="691ENIwqhY8FKyqzqd8E-51" value="" style="rounded=0;whiteSpace=wrap;html=1;strokeWidth=1;" parent="1" vertex="1">
          <mxGeometry x="560" y="340" width="220" height="140" as="geometry" />
        </mxCell>
        <mxCell id="691ENIwqhY8FKyqzqd8E-52" value="Patient" style="text;html=1;align=center;verticalAlign=middle;whiteSpace=wrap;rounded=0;rotation=0;" parent="1" vertex="1">
          <mxGeometry x="630" y="340" width="80" height="20" as="geometry" />
        </mxCell>
        <mxCell id="691ENIwqhY8FKyqzqd8E-53" value="&lt;font style=&quot;font-size: 9px;&quot;&gt;P&lt;span style=&quot;white-space: pre; font-size: 9px;&quot;&gt;&#x9;&lt;/span&gt;patient_id&lt;span style=&quot;white-space: pre; font-size: 9px;&quot;&gt;&#x9;&lt;/span&gt;&lt;span style=&quot;white-space: pre; font-size: 9px;&quot;&gt;&lt;span style=&quot;white-space: pre; font-size: 9px;&quot;&gt;&#x9;&lt;span style=&quot;white-space: pre;&quot;&gt;&#x9;&lt;/span&gt;&lt;/span&gt;&lt;/span&gt;INT&lt;/font&gt;&lt;div style=&quot;font-size: 9px;&quot;&gt;&lt;font style=&quot;font-size: 9px;&quot;&gt;&lt;span style=&quot;white-space: pre; font-size: 9px;&quot;&gt;&#x9;&lt;/span&gt;first_name&lt;span style=&quot;white-space: pre; font-size: 9px;&quot;&gt;&#x9;&lt;span style=&quot;white-space: pre; font-size: 9px;&quot;&gt;&#x9;&lt;span style=&quot;white-space: pre;&quot;&gt;&#x9;&lt;/span&gt;&lt;/span&gt;&lt;/span&gt;VARCHAR(50)&lt;br style=&quot;font-size: 9px;&quot;&gt;&lt;/font&gt;&lt;/div&gt;&lt;div style=&quot;font-size: 9px;&quot;&gt;&lt;font style=&quot;font-size: 9px;&quot;&gt;&lt;span style=&quot;white-space: pre; font-size: 9px;&quot;&gt;&#x9;&lt;/span&gt;last_name&lt;span style=&quot;white-space: pre; font-size: 9px;&quot;&gt;&#x9;&lt;span style=&quot;white-space: pre; font-size: 9px;&quot;&gt;&#x9;&lt;span style=&quot;white-space: pre;&quot;&gt;&#x9;&lt;/span&gt;&lt;/span&gt;&lt;/span&gt;VARCHAR(50)&lt;br style=&quot;font-size: 9px;&quot;&gt;&lt;/font&gt;&lt;/div&gt;&lt;div style=&quot;font-size: 9px;&quot;&gt;&lt;font style=&quot;font-size: 9px;&quot;&gt;&lt;span style=&quot;white-space: pre; font-size: 9px;&quot;&gt;&#x9;&lt;/span&gt;date_of_birth&lt;span style=&quot;white-space: pre;&quot;&gt;&#x9;&lt;/span&gt;&lt;span style=&quot;white-space: pre;&quot;&gt;&#x9;&lt;span style=&quot;white-space: pre;&quot;&gt;&#x9;&lt;/span&gt;&lt;/span&gt;DATE&lt;br style=&quot;font-size: 9px;&quot;&gt;&lt;/font&gt;&lt;/div&gt;&lt;div style=&quot;font-size: 9px;&quot;&gt;&lt;span style=&quot;white-space: pre;&quot;&gt;&#x9;&lt;/span&gt;gender&lt;span style=&quot;white-space: pre;&quot;&gt;&#x9;&lt;/span&gt;&lt;span style=&quot;white-space: pre;&quot;&gt;&#x9;&lt;/span&gt;&lt;span style=&quot;white-space: pre;&quot;&gt;&#x9;&lt;span style=&quot;white-space: pre;&quot;&gt;&#x9;&lt;/span&gt;&lt;/span&gt;ENUM(&#39;Male&#39;,&#39;Female&#39;)&lt;/div&gt;&lt;div style=&quot;font-size: 9px;&quot;&gt;&amp;nbsp; N&lt;span style=&quot;white-space: pre;&quot;&gt;&#x9;&lt;/span&gt;medical_history&lt;span style=&quot;white-space: pre;&quot;&gt;&#x9;&lt;span style=&quot;white-space: pre;&quot;&gt;&#x9;&lt;/span&gt;&lt;/span&gt;TEXT&lt;br&gt;&lt;/div&gt;&lt;div style=&quot;font-size: 9px;&quot;&gt;&amp;nbsp; N&lt;span style=&quot;white-space: pre;&quot;&gt;&#x9;&lt;/span&gt;current_medical_issues&lt;span style=&quot;white-space: pre;&quot;&gt;&#x9;&lt;/span&gt;TEXT&lt;br&gt;&lt;/div&gt;&lt;div style=&quot;font-size: 9px;&quot;&gt;&amp;nbsp; N&lt;span style=&quot;white-space: pre;&quot;&gt;&#x9;&lt;/span&gt;allergies&lt;span style=&quot;white-space: pre;&quot;&gt;&#x9;&lt;/span&gt;&lt;span style=&quot;white-space: pre;&quot;&gt;&#x9;&lt;/span&gt;&lt;span style=&quot;white-space: pre;&quot;&gt;&#x9;&lt;/span&gt;&lt;span style=&quot;white-space: pre;&quot;&gt;&#x9;&lt;/span&gt;TEXT&lt;br&gt;&lt;/div&gt;&lt;div style=&quot;font-size: 9px;&quot;&gt;&lt;font style=&quot;font-size: 9px;&quot;&gt;&amp;nbsp; N&lt;span style=&quot;white-space: pre; font-size: 9px;&quot;&gt;&#x9;&lt;/span&gt;email&lt;span style=&quot;white-space: pre; font-size: 9px;&quot;&gt;&#x9;&lt;/span&gt;&lt;span style=&quot;white-space: pre; font-size: 9px;&quot;&gt;&#x9;&lt;span style=&quot;white-space: pre; font-size: 9px;&quot;&gt;&#x9;&lt;span style=&quot;white-space: pre;&quot;&gt;&#x9;&lt;/span&gt;&lt;/span&gt;&lt;/span&gt;VARCHAR(100)&lt;br style=&quot;font-size: 9px;&quot;&gt;&lt;/font&gt;&lt;/div&gt;&lt;div style=&quot;font-size: 9px;&quot;&gt;&lt;font style=&quot;font-size: 9px;&quot;&gt;&lt;font style=&quot;font-size: 9px;&quot;&gt;&amp;nbsp; N&lt;span style=&quot;white-space: pre; font-size: 9px;&quot;&gt;&#x9;&lt;/span&gt;phone_number&lt;span style=&quot;white-space: pre; font-size: 9px;&quot;&gt;&#x9;&lt;span style=&quot;white-space: pre;&quot;&gt;&#x9;&lt;/span&gt;&lt;/span&gt;VARCHAR(20)&lt;/font&gt;&lt;br style=&quot;font-size: 9px;&quot;&gt;&lt;/font&gt;&lt;/div&gt;&lt;div style=&quot;font-size: 9px;&quot;&gt;&lt;font style=&quot;font-size: 9px;&quot;&gt;&lt;font style=&quot;font-size: 9px;&quot;&gt;&lt;font style=&quot;font-size: 9px;&quot;&gt;F&lt;span style=&quot;white-space: pre; font-size: 9px;&quot;&gt;&#x9;&lt;/span&gt;address_id&lt;span style=&quot;white-space: pre; font-size: 9px;&quot;&gt;&#x9;&lt;/span&gt;&lt;span style=&quot;white-space: pre; font-size: 9px;&quot;&gt;&#x9;&lt;span style=&quot;white-space: pre;&quot;&gt;&#x9;&lt;/span&gt;&lt;/span&gt;INT&lt;/font&gt;&lt;br style=&quot;font-size: 9px;&quot;&gt;&lt;/font&gt;&lt;/font&gt;&lt;/div&gt;" style="text;html=1;align=left;verticalAlign=top;whiteSpace=wrap;rounded=0;rotation=0;horizontal=1;fontSize=9;" parent="1" vertex="1">
          <mxGeometry x="560" y="355" width="220" height="125" as="geometry" />
        </mxCell>
        <mxCell id="691ENIwqhY8FKyqzqd8E-76" value="" style="endArrow=none;html=1;rounded=0;" parent="1" edge="1">
          <mxGeometry width="50" height="50" relative="1" as="geometry">
            <mxPoint x="560" y="359.6" as="sourcePoint" />
            <mxPoint x="780" y="359.6" as="targetPoint" />
          </mxGeometry>
        </mxCell>
        <mxCell id="691ENIwqhY8FKyqzqd8E-83" value="" style="endArrow=none;html=1;rounded=0;" parent="1" edge="1">
          <mxGeometry width="50" height="50" relative="1" as="geometry">
            <mxPoint x="402.5" y="169.6" as="sourcePoint" />
            <mxPoint x="617.5" y="169.6" as="targetPoint" />
          </mxGeometry>
        </mxCell>
        <mxCell id="691ENIwqhY8FKyqzqd8E-84" value="" style="rounded=0;whiteSpace=wrap;html=1;strokeWidth=1;" parent="1" vertex="1">
          <mxGeometry x="420" y="510" width="180" height="70" as="geometry" />
        </mxCell>
        <mxCell id="691ENIwqhY8FKyqzqd8E-85" value="Address" style="text;html=1;align=center;verticalAlign=middle;whiteSpace=wrap;rounded=0;rotation=0;" parent="1" vertex="1">
          <mxGeometry x="465" y="510" width="80" height="20" as="geometry" />
        </mxCell>
        <mxCell id="691ENIwqhY8FKyqzqd8E-86" value="&lt;div style=&quot;font-size: 9px;&quot;&gt;&lt;font style=&quot;font-size: 9px;&quot;&gt;&lt;font style=&quot;font-size: 9px;&quot;&gt;P&lt;span style=&quot;white-space: pre;&quot;&gt;&#x9;&lt;/span&gt;address_id&lt;span style=&quot;white-space: pre;&quot;&gt;&#x9;&lt;/span&gt;&lt;span style=&quot;white-space: pre;&quot;&gt;&#x9;&lt;/span&gt;INT&lt;/font&gt;&lt;/font&gt;&lt;/div&gt;&lt;div style=&quot;font-size: 9px;&quot;&gt;&lt;font style=&quot;font-size: 9px;&quot;&gt;&lt;font style=&quot;font-size: 9px;&quot;&gt;&amp;nbsp; N&lt;span style=&quot;white-space: pre;&quot;&gt;&#x9;&lt;/span&gt;address_name&lt;span style=&quot;white-space: pre;&quot;&gt;&#x9;&lt;/span&gt;VARCHAR(200)&lt;br&gt;&lt;/font&gt;&lt;/font&gt;&lt;/div&gt;&lt;div style=&quot;font-size: 9px;&quot;&gt;&amp;nbsp; N&lt;span style=&quot;white-space: pre;&quot;&gt;&#x9;&lt;/span&gt;city_name&lt;span style=&quot;white-space: pre;&quot;&gt;&#x9;&lt;/span&gt;&lt;span style=&quot;white-space: pre;&quot;&gt;&#x9;&lt;/span&gt;VARCHAR(200)&lt;br&gt;&lt;/div&gt;&lt;div style=&quot;font-size: 9px;&quot;&gt;&amp;nbsp; N&lt;span style=&quot;white-space: pre;&quot;&gt;&#x9;&lt;/span&gt;state_name&lt;span style=&quot;white-space: pre;&quot;&gt;&#x9;&lt;/span&gt;&lt;span style=&quot;white-space: pre;&quot;&gt;&#x9;&lt;/span&gt;VARCHAR(200)&lt;br&gt;&lt;/div&gt;" style="text;html=1;align=left;verticalAlign=top;whiteSpace=wrap;rounded=0;rotation=0;horizontal=1;fontSize=9;" parent="1" vertex="1">
          <mxGeometry x="420" y="525" width="180" height="55" as="geometry" />
        </mxCell>
        <mxCell id="691ENIwqhY8FKyqzqd8E-87" value="" style="endArrow=none;html=1;rounded=0;" parent="1" edge="1">
          <mxGeometry width="50" height="50" relative="1" as="geometry">
            <mxPoint x="420" y="530" as="sourcePoint" />
            <mxPoint x="600" y="530" as="targetPoint" />
          </mxGeometry>
        </mxCell>
        <mxCell id="mxrBvfnKs-idO4pNGUOi-8" style="edgeStyle=orthogonalEdgeStyle;rounded=0;orthogonalLoop=1;jettySize=auto;html=1;endArrow=ERmany;endFill=0;" edge="1" parent="1" source="lAD-b_Sc6Kr_fcu4ZUBy-2" target="mxrBvfnKs-idO4pNGUOi-2">
          <mxGeometry relative="1" as="geometry">
            <Array as="points">
              <mxPoint x="255" y="120" />
            </Array>
          </mxGeometry>
        </mxCell>
        <mxCell id="lAD-b_Sc6Kr_fcu4ZUBy-2" value="" style="rounded=0;whiteSpace=wrap;html=1;strokeWidth=1;" parent="1" vertex="1">
          <mxGeometry x="25" y="60" width="180" height="100" as="geometry" />
        </mxCell>
        <mxCell id="lAD-b_Sc6Kr_fcu4ZUBy-3" value="Medication" style="text;html=1;align=center;verticalAlign=middle;whiteSpace=wrap;rounded=0;rotation=0;" parent="1" vertex="1">
          <mxGeometry x="75" y="60" width="80" height="20" as="geometry" />
        </mxCell>
        <mxCell id="lAD-b_Sc6Kr_fcu4ZUBy-4" value="&lt;font style=&quot;font-size: 9px;&quot;&gt;P&lt;span style=&quot;white-space: pre; font-size: 9px;&quot;&gt;&#x9;&lt;/span&gt;medication_id&lt;span style=&quot;white-space: pre; font-size: 9px;&quot;&gt;&#x9;&lt;/span&gt;&lt;span style=&quot;white-space: pre; font-size: 9px;&quot;&gt;&lt;span style=&quot;white-space: pre; font-size: 9px;&quot;&gt;&#x9;&lt;/span&gt;&lt;/span&gt;INT&lt;/font&gt;&lt;div style=&quot;font-size: 9px;&quot;&gt;&lt;font style=&quot;font-size: 9px;&quot;&gt;&lt;span style=&quot;white-space: pre; font-size: 9px;&quot;&gt;&#x9;&lt;/span&gt;medication_name&lt;span style=&quot;white-space: pre; font-size: 9px;&quot;&gt;&#x9;&lt;/span&gt;VARCHAR(100)&lt;br style=&quot;font-size: 9px;&quot;&gt;&lt;/font&gt;&lt;/div&gt;&lt;div style=&quot;font-size: 9px;&quot;&gt;&lt;font style=&quot;font-size: 9px;&quot;&gt;&lt;span style=&quot;white-space: pre; font-size: 9px;&quot;&gt;&#x9;&lt;/span&gt;dosage&lt;span style=&quot;white-space: pre; font-size: 9px;&quot;&gt;&#x9;&lt;/span&gt;&lt;span style=&quot;white-space: pre; font-size: 9px;&quot;&gt;&#x9;&lt;/span&gt;&lt;span style=&quot;white-space: pre; font-size: 9px;&quot;&gt;&#x9;&lt;/span&gt;VARCHAR(50)&lt;br style=&quot;font-size: 9px;&quot;&gt;&lt;/font&gt;&lt;/div&gt;&lt;div style=&quot;font-size: 9px;&quot;&gt;&lt;font style=&quot;font-size: 9px;&quot;&gt;&lt;span style=&quot;white-space: pre;&quot;&gt;&#x9;&lt;/span&gt;frequency&lt;span style=&quot;white-space: pre;&quot;&gt;&#x9;&lt;/span&gt;&lt;span style=&quot;white-space: pre;&quot;&gt;&#x9;&lt;/span&gt;VARCHAR(50)&lt;br&gt;&lt;/font&gt;&lt;/div&gt;&lt;div style=&quot;font-size: 9px;&quot;&gt;&lt;font style=&quot;font-size: 9px;&quot;&gt;&lt;span style=&quot;white-space: pre; font-size: 9px;&quot;&gt;&#x9;&lt;/span&gt;start_date&lt;span style=&quot;white-space: pre;&quot;&gt;&#x9;&lt;/span&gt;&lt;span style=&quot;white-space: pre;&quot;&gt;&#x9;&lt;/span&gt;DATE&lt;/font&gt;&lt;/div&gt;&lt;div style=&quot;font-size: 9px;&quot;&gt;&lt;font style=&quot;font-size: 9px;&quot;&gt;&lt;span style=&quot;white-space: pre;&quot;&gt;&#x9;&lt;/span&gt;end_date&lt;span style=&quot;white-space: pre;&quot;&gt;&#x9;&lt;/span&gt;&lt;span style=&quot;white-space: pre;&quot;&gt;&#x9;&lt;span style=&quot;white-space: pre;&quot;&gt;&#x9;&lt;/span&gt;DATE&lt;/span&gt;&lt;br&gt;&lt;/font&gt;&lt;/div&gt;&lt;div style=&quot;font-size: 9px;&quot;&gt;&lt;span style=&quot;white-space: pre;&quot;&gt;&#x9;&lt;/span&gt;price &lt;span style=&quot;white-space: pre;&quot;&gt;&#x9;&lt;/span&gt;&lt;span style=&quot;white-space: pre;&quot;&gt;&#x9;&lt;/span&gt;&lt;span style=&quot;white-space: pre;&quot;&gt;&#x9;&lt;/span&gt;DECIMAL(8,2)&lt;br&gt;&lt;/div&gt;" style="text;html=1;align=left;verticalAlign=top;whiteSpace=wrap;rounded=0;rotation=0;horizontal=1;fontSize=9;" parent="1" vertex="1">
          <mxGeometry x="25" y="75" width="180" height="85" as="geometry" />
        </mxCell>
        <mxCell id="lAD-b_Sc6Kr_fcu4ZUBy-5" value="" style="endArrow=none;html=1;rounded=0;" parent="1" edge="1">
          <mxGeometry width="50" height="50" relative="1" as="geometry">
            <mxPoint x="25" y="80" as="sourcePoint" />
            <mxPoint x="205" y="80" as="targetPoint" />
          </mxGeometry>
        </mxCell>
        <mxCell id="mxrBvfnKs-idO4pNGUOi-9" style="edgeStyle=orthogonalEdgeStyle;rounded=0;orthogonalLoop=1;jettySize=auto;html=1;endArrow=ERmany;endFill=0;" edge="1" parent="1" source="lAD-b_Sc6Kr_fcu4ZUBy-8" target="mxrBvfnKs-idO4pNGUOi-2">
          <mxGeometry relative="1" as="geometry">
            <Array as="points">
              <mxPoint x="255" y="250" />
            </Array>
          </mxGeometry>
        </mxCell>
        <mxCell id="lAD-b_Sc6Kr_fcu4ZUBy-8" value="" style="rounded=0;whiteSpace=wrap;html=1;strokeWidth=1;" parent="1" vertex="1">
          <mxGeometry x="25" y="200" width="180" height="80" as="geometry" />
        </mxCell>
        <mxCell id="lAD-b_Sc6Kr_fcu4ZUBy-9" value="Treatment" style="text;html=1;align=center;verticalAlign=middle;whiteSpace=wrap;rounded=0;rotation=0;" parent="1" vertex="1">
          <mxGeometry x="75" y="200" width="80" height="20" as="geometry" />
        </mxCell>
        <mxCell id="lAD-b_Sc6Kr_fcu4ZUBy-10" value="&lt;font style=&quot;font-size: 9px;&quot;&gt;P&lt;span style=&quot;white-space: pre; font-size: 9px;&quot;&gt;&#x9;&lt;/span&gt;treatment_id&lt;span style=&quot;white-space: pre; font-size: 9px;&quot;&gt;&#x9;&lt;/span&gt;&lt;span style=&quot;white-space: pre; font-size: 9px;&quot;&gt;&lt;span style=&quot;white-space: pre; font-size: 9px;&quot;&gt;&#x9;&lt;/span&gt;&lt;/span&gt;INT&lt;/font&gt;&lt;div style=&quot;font-size: 9px;&quot;&gt;&lt;font style=&quot;font-size: 9px;&quot;&gt;&lt;span style=&quot;white-space: pre; font-size: 9px;&quot;&gt;&#x9;&lt;/span&gt;treatment_name&lt;span style=&quot;white-space: pre; font-size: 9px;&quot;&gt;&#x9;&lt;/span&gt;VARCHAR(100)&lt;br style=&quot;font-size: 9px;&quot;&gt;&lt;/font&gt;&lt;/div&gt;&lt;div style=&quot;font-size: 9px;&quot;&gt;&lt;font style=&quot;font-size: 9px;&quot;&gt;&lt;span style=&quot;white-space: pre; font-size: 9px;&quot;&gt;&#x9;&lt;/span&gt;treatment_date&lt;span style=&quot;white-space: pre; font-size: 9px;&quot;&gt;&#x9;&lt;/span&gt;DATETIME&lt;br style=&quot;font-size: 9px;&quot;&gt;&lt;/font&gt;&lt;/div&gt;&lt;div style=&quot;font-size: 9px;&quot;&gt;&lt;font style=&quot;font-size: 9px;&quot;&gt;&amp;nbsp; N&lt;span style=&quot;white-space: pre; font-size: 9px;&quot;&gt;&#x9;&lt;/span&gt;description&lt;span style=&quot;white-space: pre; font-size: 9px;&quot;&gt;&#x9;&lt;span style=&quot;white-space: pre; font-size: 9px;&quot;&gt;&#x9;&lt;/span&gt;&lt;/span&gt;VARCHAR(250)&lt;/font&gt;&lt;/div&gt;&lt;div style=&quot;font-size: 9px;&quot;&gt;&lt;font style=&quot;font-size: 9px;&quot;&gt;&lt;span style=&quot;white-space: pre;&quot;&gt;&#x9;&lt;/span&gt;price&lt;span style=&quot;white-space: pre;&quot;&gt;&#x9;&lt;/span&gt;&lt;span style=&quot;white-space: pre;&quot;&gt;&#x9;&lt;/span&gt;&lt;span style=&quot;white-space: pre;&quot;&gt;&#x9;&lt;/span&gt;DECIMAL(8,2)&lt;br&gt;&lt;/font&gt;&lt;/div&gt;" style="text;html=1;align=left;verticalAlign=top;whiteSpace=wrap;rounded=0;rotation=0;horizontal=1;fontSize=9;" parent="1" vertex="1">
          <mxGeometry x="25" y="215" width="180" height="65" as="geometry" />
        </mxCell>
        <mxCell id="lAD-b_Sc6Kr_fcu4ZUBy-11" value="" style="endArrow=none;html=1;rounded=0;" parent="1" edge="1">
          <mxGeometry width="50" height="50" relative="1" as="geometry">
            <mxPoint x="25" y="220" as="sourcePoint" />
            <mxPoint x="205" y="220" as="targetPoint" />
          </mxGeometry>
        </mxCell>
        <mxCell id="mxrBvfnKs-idO4pNGUOi-10" style="edgeStyle=orthogonalEdgeStyle;rounded=0;orthogonalLoop=1;jettySize=auto;html=1;endArrow=none;endFill=0;startArrow=ERmany;startFill=0;" edge="1" parent="1" source="mxrBvfnKs-idO4pNGUOi-2" target="691ENIwqhY8FKyqzqd8E-45">
          <mxGeometry relative="1" as="geometry">
            <Array as="points">
              <mxPoint x="370" y="190" />
              <mxPoint x="370" y="190" />
            </Array>
          </mxGeometry>
        </mxCell>
        <mxCell id="mxrBvfnKs-idO4pNGUOi-2" value="" style="rounded=0;whiteSpace=wrap;html=1;strokeWidth=1;" vertex="1" parent="1">
          <mxGeometry x="225" y="160" width="140" height="60" as="geometry" />
        </mxCell>
        <mxCell id="mxrBvfnKs-idO4pNGUOi-3" value="Event_Med_Tre" style="text;html=1;align=center;verticalAlign=middle;whiteSpace=wrap;rounded=0;rotation=0;" vertex="1" parent="1">
          <mxGeometry x="245" y="160" width="100" height="20" as="geometry" />
        </mxCell>
        <mxCell id="mxrBvfnKs-idO4pNGUOi-4" value="&lt;div style=&quot;font-size: 9px;&quot;&gt;F&lt;span style=&quot;white-space: pre;&quot;&gt;&#x9;&lt;/span&gt;event_id&lt;span style=&quot;white-space: pre;&quot;&gt;&#x9;&lt;/span&gt;&lt;span style=&quot;white-space: pre;&quot;&gt;&#x9;&lt;/span&gt;&lt;span style=&quot;white-space: pre;&quot;&gt;&#x9;&lt;/span&gt;INT&lt;br&gt;&lt;/div&gt;&lt;div style=&quot;font-size: 9px;&quot;&gt;F N&lt;span style=&quot;white-space: pre;&quot;&gt;&#x9;&lt;/span&gt;medication_id&lt;span style=&quot;white-space: pre;&quot;&gt;&#x9;&lt;/span&gt;&lt;span style=&quot;white-space: pre;&quot;&gt;&#x9;&lt;/span&gt;INT&lt;/div&gt;&lt;div style=&quot;font-size: 9px;&quot;&gt;F N&lt;span style=&quot;white-space: pre;&quot;&gt;&#x9;&lt;/span&gt;treatment_id&lt;span style=&quot;white-space: pre;&quot;&gt;&#x9;&lt;/span&gt;&lt;span style=&quot;white-space: pre;&quot;&gt;&#x9;&lt;/span&gt;INT&lt;/div&gt;" style="text;html=1;align=left;verticalAlign=top;whiteSpace=wrap;rounded=0;rotation=0;horizontal=1;fontSize=9;" vertex="1" parent="1">
          <mxGeometry x="225" y="175" width="140" height="45" as="geometry" />
        </mxCell>
        <mxCell id="mxrBvfnKs-idO4pNGUOi-5" value="" style="endArrow=none;html=1;rounded=0;" edge="1" parent="1">
          <mxGeometry width="50" height="50" relative="1" as="geometry">
            <mxPoint x="225" y="180" as="sourcePoint" />
            <mxPoint x="365" y="180" as="targetPoint" />
          </mxGeometry>
        </mxCell>
        <mxCell id="mxrBvfnKs-idO4pNGUOi-16" style="edgeStyle=orthogonalEdgeStyle;rounded=0;orthogonalLoop=1;jettySize=auto;html=1;endArrow=none;endFill=0;startArrow=ERmany;startFill=0;" edge="1" parent="1" source="mxrBvfnKs-idO4pNGUOi-11" target="691ENIwqhY8FKyqzqd8E-45">
          <mxGeometry relative="1" as="geometry">
            <Array as="points">
              <mxPoint x="480" y="290" />
            </Array>
          </mxGeometry>
        </mxCell>
        <mxCell id="mxrBvfnKs-idO4pNGUOi-11" value="" style="rounded=0;whiteSpace=wrap;html=1;strokeWidth=1;" vertex="1" parent="1">
          <mxGeometry x="290" y="265" width="140" height="45" as="geometry" />
        </mxCell>
        <mxCell id="mxrBvfnKs-idO4pNGUOi-12" value="Event_Staff" style="text;html=1;align=center;verticalAlign=middle;whiteSpace=wrap;rounded=0;rotation=0;" vertex="1" parent="1">
          <mxGeometry x="310" y="265" width="100" height="20" as="geometry" />
        </mxCell>
        <mxCell id="mxrBvfnKs-idO4pNGUOi-13" value="&lt;div style=&quot;font-size: 9px;&quot;&gt;F N&lt;span style=&quot;white-space: pre;&quot;&gt;&#x9;&lt;/span&gt;event_id&lt;span style=&quot;white-space: pre;&quot;&gt;&#x9;&lt;/span&gt;&lt;span style=&quot;white-space: pre;&quot;&gt;&#x9;&lt;/span&gt;&lt;span style=&quot;white-space: pre;&quot;&gt;&#x9;&lt;/span&gt;INT&lt;br&gt;&lt;/div&gt;&lt;div style=&quot;font-size: 9px;&quot;&gt;F N&lt;span style=&quot;white-space: pre;&quot;&gt;&#x9;&lt;/span&gt;staff_id&lt;span style=&quot;white-space: pre;&quot;&gt;&#x9;&lt;/span&gt;&lt;span style=&quot;white-space: pre;&quot;&gt;&#x9;&lt;/span&gt;&lt;span style=&quot;white-space: pre;&quot;&gt;&#x9;&lt;/span&gt;INT&lt;/div&gt;" style="text;html=1;align=left;verticalAlign=top;whiteSpace=wrap;rounded=0;rotation=0;horizontal=1;fontSize=9;" vertex="1" parent="1">
          <mxGeometry x="290" y="280" width="140" height="30" as="geometry" />
        </mxCell>
        <mxCell id="mxrBvfnKs-idO4pNGUOi-14" value="" style="endArrow=none;html=1;rounded=0;" edge="1" parent="1">
          <mxGeometry width="50" height="50" relative="1" as="geometry">
            <mxPoint x="290" y="285" as="sourcePoint" />
            <mxPoint x="430" y="285" as="targetPoint" />
          </mxGeometry>
        </mxCell>
      </root>
    </mxGraphModel>
  </diagram>
</mxfile>
